HIERARCHY
ROOT reference
{
  OFFSET 0 0 0
  CHANNELS 6 Xposition Yposition Zposition Zrotation Xrotation Yrotation
  JOINT Hips
  {
    OFFSET -0.0713296 89.0815 86.7308
    CHANNELS 6 Xposition Yposition Zposition Zrotation Xrotation Yrotation
    JOINT Spine
    {
      OFFSET 0 7.57377 0
      CHANNELS 6 Xposition Yposition Zposition Zrotation Xrotation Yrotation
      JOINT Spine1
      {
        OFFSET 0 21.6353 0
        CHANNELS 6 Xposition Yposition Zposition Zrotation Xrotation Yrotation
        JOINT Neck
        {
          OFFSET 0 21.5464 1.95876
          CHANNELS 6 Xposition Yposition Zposition Zrotation Xrotation Yrotation
          JOINT Head
          {
            OFFSET 0 12.9308 -1.84726
            CHANNELS 6 Xposition Yposition Zposition Zrotation Xrotation Yrotation
            End Site
            {
              OFFSET 0 23.0907 0
            }
          }
        }
        JOINT LeftShoulder
        {
          OFFSET 3.70822 19.5981 -0.368577
          CHANNELS 6 Xposition Yposition Zposition Zrotation Xrotation Yrotation
          JOINT LeftArm
          {
            OFFSET 11.1726 0 0
            CHANNELS 6 Xposition Yposition Zposition Zrotation Xrotation Yrotation
            JOINT LeftForeArm
            {
              OFFSET 28.6421 0 0
              CHANNELS 6 Xposition Yposition Zposition Zrotation Xrotation Yrotation
              JOINT LeftHand
              {
                OFFSET 23.9346 0 0
                CHANNELS 6 Xposition Yposition Zposition Zrotation Xrotation Yrotation
                End Site
                {
                  OFFSET 13.8545 0 0
                }
              }
            }
          }
        }
        JOINT RightShoulder
        {
          OFFSET -3.63664 19.5981 -0.368577
          CHANNELS 6 Xposition Yposition Zposition Zrotation Xrotation Yrotation
          JOINT RightArm
          {
            OFFSET -11.1726 0 0
            CHANNELS 6 Xposition Yposition Zposition Zrotation Xrotation Yrotation
            JOINT RightForeArm
            {
              OFFSET -28.6421 0 0
              CHANNELS 6 Xposition Yposition Zposition Zrotation Xrotation Yrotation
              JOINT RightHand
              {
                OFFSET -23.9346 0 0
                CHANNELS 6 Xposition Yposition Zposition Zrotation Xrotation Yrotation
                End Site
                {
                  OFFSET -13.8545 0 0
                }
              }
            }
          }
        }
      }
    }
    JOINT LeftUpLeg
    {
      OFFSET 9.2363 0 0
      CHANNELS 6 Xposition Yposition Zposition Zrotation Xrotation Yrotation
      JOINT LeftLeg
      {
        OFFSET 0 -40.7061 0
        CHANNELS 6 Xposition Yposition Zposition Zrotation Xrotation Yrotation
        JOINT LeftFoot
        {
          OFFSET 0 -40.9975 0
          CHANNELS 6 Xposition Yposition Zposition Zrotation Xrotation Yrotation
          JOINT LeftToeBase
          {
            OFFSET 0 -6.00359 13.8545
            CHANNELS 6 Xposition Yposition Zposition Zrotation Xrotation Yrotation
            End Site
            {
              OFFSET 0 0 3.69452
            }
          }
        }
      }
    }
    JOINT RightUpLeg
    {
      OFFSET -9.2363 0 0
      CHANNELS 6 Xposition Yposition Zposition Zrotation Xrotation Yrotation
      JOINT RightLeg
      {
        OFFSET 0 -40.7061 0
        CHANNELS 6 Xposition Yposition Zposition Zrotation Xrotation Yrotation
        JOINT RightFoot
        {
          OFFSET 0 -40.9975 0
          CHANNELS 6 Xposition Yposition Zposition Zrotation Xrotation Yrotation
          JOINT RightToeBase
          {
            OFFSET 0 -6.00359 13.8545
            CHANNELS 6 Xposition Yposition Zposition Zrotation Xrotation Yrotation
            End Site
            {
              OFFSET 0 0 3.69452
            }
          }
        }
      }
    }
  }
}
MOTION
Frames:	4
Frame Time:	0.004
0 0 0 0 0 -0 -21.5707 83.4102 -144.315 0.895139 0.744944 13.5656 3.55271e-015 7.57377 2.84217e-014 0.725953 5.08433 -1.06381 0 21.6353 0 10.9094 29.7385 -3.93625 3.55271e-015 21.5464 1.95876 5.0643 34.827 -1.3897 0 12.9308 -1.84726 16.4834 29.9258 -2.65056 3.70822 19.5981 -0.368577 -0.536603 -4.18972 -27.9092 11.1726 0 0 -43.5932 46.3893 -39.8126 28.6421 0 0 16.3764 -20.1821 -20.5586 23.9346 1.42109e-014 7.10543e-015 12.7432 -18.4889 -10.6847 -3.63664 19.5981 -0.368577 2.37623 3.54178 8.53751 -11.1726 0 2.84217e-014 27.2566 38.9941 41.1854 -28.6421 0 0 -12.0982 -12.0115 14.3218 -23.9346 0 1.42109e-014 -24.9868 -11.2222 3.24786 9.2363 -1.42109e-014 2.84217e-014 -2.15985 -20.8049 2.79757 -7.10543e-015 -40.7061 0 7.92546 37.4386 2.94507 0 -40.9975 0 -9.74403 -3.64906 -17.4075 1.77636e-015 -6.00359 13.8545 1.59028e-015 -1.59028e-015 -0 -9.2363 -1.42109e-014 0 1.03363 -5.01377 1.53004 0 -40.7061 -2.84217e-014 2.04874 21.6666 8.19595 0 -40.9975 2.84217e-014 -7.23872 -15.9966 -13.9275 -7.10543e-015 -6.00359 13.8545 -8.73565e-017 4.03781e-017 -3.18055e-015 
0 0 0 0 0 -0 -21.5325 83.4459 -144.072 0.944353 0.767131 13.4682 0 7.57377 -2.84217e-014 0.647999 5.05358 -1.00255 0 21.6353 0 10.7819 29.6757 -3.83812 -3.55271e-015 21.5464 1.95876 5.07887 34.8135 -1.38662 0 12.9308 -1.84726 16.432 29.9598 -2.64428 3.70822 19.5981 -0.368577 -0.547523 -4.23211 -27.9186 11.1726 -2.84217e-014 0 -43.6323 46.5315 -39.7343 28.6421 0 0 16.609 -20.2154 -20.6252 23.9346 0 3.55271e-015 12.7102 -18.4756 -10.7443 -3.63664 19.5981 -0.368577 2.38492 3.65878 8.50302 -11.1726 -1.42109e-014 0 27.4113 38.5299 41.0889 -28.6421 0 0 -11.7535 -11.7972 14.4922 -23.9346 0 0 -25.2118 -11.0464 3.27984 9.2363 0 -2.84217e-014 -2.25169 -21.0158 2.6876 3.55271e-015 -40.7061 0 7.68173 36.6057 3.86725 0 -40.9975 0 -9.39552 -3.41566 -18.3271 -3.55271e-015 -6.00359 13.8545 9.93923e-016 1.59028e-015 -0 -9.2363 0 0 0.957118 -4.70857 1.66256 7.10543e-015 -40.7061 2.84217e-014 2.14997 21.3339 7.90392 0 -40.9975 0 -7.3859 -15.9023 -13.7226 -3.55271e-015 -6.00359 13.8545 -1.66172e-016 0 -0 
0 0 0 0 0 -0 -21.4977 83.4772 -143.827 0.981088 0.782423 13.3464 -3.55271e-015 7.57377 0 0.556925 5.02179 -0.922527 -3.55271e-015 21.6353 0 10.7015 29.6088 -3.73411 0 21.5464 1.95876 4.99959 34.8433 -1.33059 7.10543e-015 12.9308 -1.84726 16.518 29.8879 -2.59843 3.70822 19.5981 -0.368577 -0.535284 -4.09725 -27.9117 11.1726 0 0 -43.4497 46.541 -39.8733 28.6421 0 0 16.712 -20.3687 -20.7271 23.9346 1.42109e-014 3.55271e-015 12.8041 -18.6133 -10.8102 -3.63664 19.5981 -0.368577 2.36731 3.65069 8.49109 -11.1726 0 -2.84217e-014 27.2107 38.9618 41.2214 -28.6421 -1.42109e-014 -1.42109e-014 -12.1037 -12.0501 14.2949 -23.9346 -1.42109e-014 -1.42109e-014 -25.0317 -11.2932 3.37999 9.2363 -2.84217e-014 0 -2.28921 -21.2003 2.57275 0 -40.7061 1.42109e-014 7.41706 35.8299 4.07671 7.10543e-015 -40.9975 0 -9.18093 -3.32235 -18.3976 1.77636e-015 -6.00359 13.8545 1.19271e-015 -1.59028e-015 -7.95139e-016 -9.2363 -1.42109e-014 -2.84217e-014 0.948446 -4.4532 1.69088 0 -40.7061 0 2.09741 21.1219 7.90795 -1.42109e-014 -40.9975 0 -7.216 -15.9382 -13.5771 3.55271e-015 -6.00359 13.8545 -1.67725e-016 2.48481e-017 -0 
0 0 0 0 0 -0 -21.4577 83.5028 -143.564 1.01324 0.796878 13.2667 0 7.57377 0 0.463276 4.97433 -0.866108 -3.55271e-015 21.6353 5.68434e-014 10.6549 29.5379 -3.66252 3.55271e-015 21.5464 1.95876 4.9868 34.871 -1.35686 3.55271e-015 12.9308 -1.84726 16.4377 29.8986 -2.61801 3.70822 19.5981 -0.368577 -0.583079 -4.13563 -27.853 11.1726 0 0 -43.4828 46.6694 -39.8331 28.6421 0 0 16.8071 -20.4153 -20.8476 23.9346 -1.42109e-014 0 12.9008 -18.6345 -10.8064 -3.63664 19.5981 -0.368577 2.33555 3.69144 8.42603 -11.1726 0 0 27.1012 38.9557 41.2895 -28.6421 -1.42109e-014 -1.42109e-014 -11.9636 -12.0406 14.3168 -23.9346 0 0 -24.9675 -11.2879 3.33899 9.2363 1.42109e-014 0 -2.34853 -21.3927 2.42402 0 -40.7061 0 7.1827 35.0593 4.28389 0 -40.9975 0 -8.9366 -3.29513 -18.3538 -1.77636e-015 -6.00359 13.8545 7.95139e-016 -1.59028e-015 -1.59028e-015 -9.2363 2.84217e-014 2.84217e-014 0.946971 -4.14446 1.93366 0 -40.7061 -2.84217e-014 2.12766 20.8269 7.62181 3.55271e-015 -40.9975 0 -7.13211 -15.9445 -13.4649 3.55271e-015 -6.00359 13.8545 8.07563e-017 -9.93923e-017 1.59028e-015 
